<?xml version="1.0" encoding="UTF-8"?>
<svg id="_レイヤー_2" data-name="レイヤー 2" xmlns="http://www.w3.org/2000/svg" viewBox="0 0 142.59 30.02">
  <defs>
    <style>
      .cls-1 {
        fill: #fff;
      }
    </style>
  </defs>
  <g id="_デザイン01" data-name="デザイン01">
    <g>
      <path class="cls-1" d="M13.67,12.94h16.81c.14.22.14,2.14.14,2.27-.58,11.13-10.51,14.99-15.67,14.5C7.72,29.55.83,24.33,0,15.65-.23,7.14,6.02.19,14.95,0c8.63.03,13.3,5.91,14.53,9.77-.4.03-7.43,0-7.43,0,0,0-2.14-3.8-6.92-3.67-4.1.09-8.11,3.23-8.2,8.75.09,3.76,2.1,8.66,8.2,9.06,6.24-.04,7.84-5.26,7.84-5.26h-9.29v-5.72h0Z"/>
      <path class="cls-1" d="M42.87,12.62c3.55-.04,5.78,2.56,5.55,5.75.23,3.67-1.72,5.92-5,6.1-2.55.04-5.51-1.64-5.6-5.75-.05-4.2,2.51-5.92,5.06-6.1h0ZM42.87,7.36c-6.16.04-11.12,5-11.43,11.01.18,8.06,6.84,11.4,10.75,11.45,3.89.05,6.23-1.68,6.23-1.68v1.03h6.58V7.73h-6.58s0,1.08,0,1.08c0,0-2.68-1.5-5.55-1.46h0Z"/>
      <polygon class="cls-1" points="57.2 29.16 64.05 29.16 64.05 20.78 69.58 29.16 77.48 29.16 70.36 18.63 78.54 7.74 71.09 7.74 64.03 16.67 64.03 1.04 57.2 1.04 57.2 29.16 57.2 29.16"/>
      <polygon class="cls-1" points="78.9 29.16 85.75 29.16 85.75 20.78 91.27 29.16 99.18 29.16 92.05 18.63 100.24 7.74 92.78 7.74 85.73 16.67 85.73 1.04 78.9 1.04 78.9 29.16 78.9 29.16"/>
      <path class="cls-1" d="M104.69,15.95s1.21-3.4,4.54-3.35c3.77,0,4.73,3.35,4.73,3.35h-9.27ZM109.5,24.63c-4.67-.41-4.81-4.02-4.81-4.02h16.25c1.22-5.17-2.64-13.53-11.89-13.62-5.9-.04-11.62,5.16-11.37,11.8-.09,3.58,3.15,11.23,11.95,11.23,8.67-.13,10.83-7.77,10.83-7.77h-6.69s-1.58,2.38-4.27,2.38h0Z"/>
      <path class="cls-1" d="M122.41,29.16h6.77v-12.5c.02-.47.25-3.36,3.42-3.36,2.19-.02,3.28,2.14,3.28,3.62,0,.02,0,12.23,0,12.23h6.72v-13.6c-.05-3.27-2.46-8.09-8.47-8.31-3.01.13-4.94,1.57-4.94,1.57v-1.09h-6.77v21.43h0Z"/>
    </g>
  </g>
</svg>