<?xml version="1.0" encoding="UTF-8"?>
<svg id="_レイヤー_2" data-name="レイヤー 2" xmlns="http://www.w3.org/2000/svg" viewBox="0 0 221.8 75.91">
  <defs>
    <style>
      .cls-1 {
        fill: #fff;
      }

      .cls-2 {
        fill: #009744;
      }
    </style>
  </defs>
  <g id="_デザイン01" data-name="デザイン01">
    <g>
      <g>
        <path class="cls-1" d="M80.43,51.36v9.16h-23.07V19.53h10.14v31.83h12.93Z"/>
        <rect class="cls-1" x="87.65" y="32.5" width="9.65" height="28.02"/>
        <path class="cls-1" d="M126.05,52.07v8.45h-6.64c-6.2,0-9.96-3.79-9.96-10.02v-5.9h-5.13v-2.26l12.56-13.37h1.98v8.19h7.04v7.43h-6.8v4.25c0,2.01,1.21,3.22,3.25,3.22h3.7Z"/>
        <path class="cls-1" d="M155.07,52.07v8.45h-6.64c-6.2,0-9.96-3.79-9.96-10.02v-5.9h-5.13v-2.26l12.56-13.37h1.98v8.19h7.04v7.43h-6.8v4.25c0,2.01,1.21,3.22,3.25,3.22h3.7Z"/>
        <path class="cls-1" d="M162.36,21.45h9.65v39.08h-9.65V21.45Z"/>
        <path class="cls-1" d="M194.47,53.68c-3.05,0-5.09-1.66-5.72-4.88h20.81c.13-.87.2-1.71.2-2.55h0c0-8.22-6.25-14.67-15.29-14.67s-15.22,6.32-15.22,14.91,6.48,14.95,15.22,14.95c4.69,0,8.77-1.79,11.56-4.87l-6.49-5.52c-.93,1.64-2.81,2.63-5.07,2.63ZM194.47,39.15c2.91,0,4.93,1.51,5.78,4.31h-11.33c.78-2.78,2.74-4.31,5.55-4.31Z"/>
        <circle class="cls-1" cx="92.48" cy="22.96" r="4.58"/>
        <circle class="cls-1" cx="217.42" cy="55.44" r="4.38"/>
      </g>
      <path class="cls-1" d="M46.26,39.91c0-11.91-5.89-23.09-23.09-23.09S.08,28,.08,39.91s5.89,23.09,23.09,23.09,23.09-11.19,23.09-23.09Z"/>
      <path class="cls-2" d="M10.64,47.6c0-1.73.88-3.02,3.16-3.02,1.66,0,3.27.77,4.67,1.07.48-.85.74-2.35.88-3.31l.29-2.06c-2.47-.4-5.41-1.44-7.47-3.57l2.32-3.05c1.95,1.62,3.97,2.39,5.67,2.76.77-5.3,2.87-8.68,7.91-8.68,2.54,0,5.45,1.69,5.45,5.15,0,2.8-2.24,7.06-9.49,7.58l-.37,2.54c-.18,1.21-.63,3.13-1.21,4.12.96.4,2.21.59,3.61.59,2.61,0,4.67-1.47,6.37-4.71l3.13,1.51c-1.91,4.08-5.04,6.92-9.64,6.77-2.17-.07-4.34-.63-6.37-1.32-1.25.96-2.83,1.32-4.45,1.32-2.8,0-4.42-1.66-4.45-3.68ZM29.18,32.99c0-.92-.59-1.4-1.4-1.4-1.55,0-2.65,2.06-3.13,4.97,3.68-.52,4.53-2.58,4.53-3.57Z"/>
      <g>
        <path class="cls-1" d="M3.96,1.02V0h1.49v1.01h3.28v1.37h-3.28v1.13h3.84v1.37h-3.09c1.23,1.51,2.6,2.11,3.26,2.37l-.87,1.47c-1.37-.78-2.6-1.9-3.14-2.76v3.28h-1.49v-3.25c-.82,1.11-1.72,1.95-3.14,2.73l-.82-1.47c1.86-.8,2.76-1.77,3.27-2.37H.14v-1.37h3.82v-1.13H.73v-1.37h3.23Z"/>
        <path class="cls-1" d="M13.02,2.21h-1.74V.85h3.47V.03h1.45v.82h3.53v1.36h-1.76l1.04.21c-.04.15-.27,1.01-.61,1.73h1.69v1.38h-2.96c.98.98,1.84,1.54,3.11,2.07l-.82,1.41c-1.56-.73-2.54-1.72-3.22-2.57v2.79h-1.45v-2.72c-1.26,1.42-2.27,2.06-3.17,2.5l-.84-1.44c.93-.37,2.03-.91,3.1-2.04h-2.94v-1.38h1.68c-.17-.63-.31-1.21-.56-1.7l.99-.24ZM12.98,4.15h1.77v-1.94h-1.26c.16.32.44,1.06.56,1.71l-1.07.23ZM16.95,3.85c.23-.51.51-1.43.56-1.64h-1.32v1.94h1.98l-1.22-.3Z"/>
        <path class="cls-1" d="M24.11.57c-.1.59-.39,2.26-.39,4.66,0,1.17.07,2.36.29,3.51l-1.61.12c-.09-.47-.26-1.45-.26-3.28,0-2.18.24-4.26.34-5.11l1.63.11ZM26.69,4.98c-.36.45-.45.82-.45,1.1,0,.66.74.78,1.68.78.69,0,1.6-.03,2.28-.12l.03,1.57c-.28.03-.82.09-1.77.09-1.59,0-3.7-.08-3.7-2.04,0-.25,0-.99.63-1.94l1.29.56ZM30.06,1.1v1.53h-5v-1.53h5Z"/>
        <path class="cls-1" d="M33.69,7.05c3.3.05,5.69-.22,5.69-2.58,0-.84-.37-1.83-1.93-1.83-.97,0-1.97.23-4.89.91l-.37-1.69c.57-.08.98-.15,1.98-.32,2.13-.38,2.84-.42,3.45-.42,1.98,0,3.42,1.3,3.42,3.34,0,3.09-2.8,3.66-3.59,3.82-.67.14-1.57.28-3.42.27l-.34-1.52Z"/>
        <path class="cls-1" d="M46.54.28c-.03.17-.16.91-.17,1.06h1.69v1.48h-1.93c-.3,1.48-.94,3.59-1.46,5.04l-1.6-.45c.44-.89,1.15-2.94,1.48-4.59h-1.3v-1.48h1.56c.08-.53.1-.79.12-1.12l1.63.06ZM51.83,2.86c-.23-.02-.49-.05-.79-.05-.35,0-.65.04-.89.07l.06,2.6c1.23.7,1.57,1.02,1.82,1.24l-.87,1.48c-.26-.28-.64-.63-1.07-1.02v.2c-.06,1.1-1,1.52-2.08,1.52-1.62,0-2.41-.87-2.41-1.93,0-.86.57-1.99,2.49-1.99.24,0,.41,0,.58.03l-.1-3.51c.46-.09,1.22-.23,3.12-.29l.14,1.65ZM48.71,6.4c-.18-.07-.37-.14-.7-.14-.14,0-1.04,0-1.04.67,0,.2.11.66.93.66s.81-.41.81-.65v-.54Z"/>
        <path class="cls-1" d="M57.43.31c-.05.38-.1.8-.21,1.63h.84c1.93,0,2.16,1.44,2.16,2.75,0,.55-.07,2.66-.69,3.49-.5.65-1.15.69-1.64.69-.64,0-1.07-.08-1.41-.14l-.06-1.48c.36.07.7.14,1.14.14.49,0,.65-.18.75-.33.27-.4.4-1.73.4-2.43,0-.78-.02-1.26-.94-1.25h-.78c-.33,1.88-.8,3.73-1.65,5.42l-1.44-.77c.43-.65.94-1.6,1.57-4.64l-1.39.02v-1.48h1.6c.09-.71.14-1.28.17-1.74l1.6.11ZM60.63,2c-.09-.35-.3-1.06-.59-1.57l.86-.23c.28.45.52,1.13.61,1.51l-.87.29ZM61.13,6.16c-.05-2.43-.54-3.32-.74-3.68l1.42-.44c.49.83.86,2,.97,3.96l-1.65.17ZM62.07,1.76c-.03-.11-.28-.92-.64-1.52l.85-.23c.11.17.31.46.64,1.5l-.85.25Z"/>
        <path class="cls-1" d="M71.41.5v1.22c-1.47,1.24-1.56,1.32-1.87,1.57.16-.05.35-.12.87-.12,1.98,0,2.89,1.47,2.89,2.77,0,1.6-1.22,2.95-4.01,2.95-2.52,0-2.57-1.56-2.57-1.77,0-1.02.99-1.59,1.92-1.59,1.17,0,1.75.81,1.75,1.6,0,.12,0,.19-.03.33.83-.25,1.29-.72,1.29-1.46,0-.59-.37-1.54-2.01-1.54-1.56,0-2.34.74-4.13,2.57l-.96-1.28c.8-.6,1.17-.92,4.5-3.82l-3.41.07V.5h5.77ZM69.26,7.42c0-.07-.02-.74-.7-.74-.37,0-.62.18-.62.48,0,.5.7.52.92.52.13,0,.22,0,.37-.04.02-.09.03-.14.03-.22Z"/>
        <path class="cls-1" d="M75.18,7.78c1.79-.23,2.76-.82,3.18-1.21h-3.06v-1.37h.98v-2.42h2.88v-.52h1.44v.52h2.88v2.42h.98v1.37h-3.13c.36.34,1.03.97,3.29,1.15l-.78,1.52c-.52-.08-1.35-.22-2.39-.87-.75-.46-1.26-1.03-1.55-1.49-.52.8-1.66,1.81-3.9,2.43l-.82-1.54ZM77.11,0h1.42v.61h2.65V0h1.45v.61h1.82v1.39h-1.82v.52h-1.45v-.52h-2.65v.52h-1.42v-.52h-1.82V.62h1.82V0ZM79.16,4.05h-1.46v1.15h1.4c.04-.18.06-.39.06-.57v-.57ZM80.59,4.43c0,.45-.04.67-.06.77h1.5v-1.15h-1.44v.38Z"/>
        <path class="cls-1" d="M86.05,1.72h3.86v1.08h-3.86v-1.08ZM86.3.31h3.3v1.02h-3.3V.31ZM86.3,3.17h3.3v1.07h-3.3v-1.07ZM86.3,4.62h3.3v1.06h-3.3v-1.06ZM86.3,6.08h3.3v2.8h-1.98v.36h-1.32v-3.16ZM87.62,7.11v.72h.77v-.72h-.77ZM91.25,2.01c.04-.17.06-.29.09-.51h-1.33V.31h5.13v1.2h-2.41c-.04.2-.05.25-.1.51h2.17v1.88h.49v1.17h-5.42v-1.17h.92c.05-.17.11-.35.21-.78h-.81v-1.1h1.06ZM94.92,5.54v3.7h-1.38v-.36h-1.98v.36h-1.37v-3.7h4.73ZM91.56,6.74v.93h1.98v-.93h-1.98ZM93.41,3.89v-.78h-1.03c-.06.24-.12.46-.2.78h1.23Z"/>
        <path class="cls-1" d="M100.96,7.91c.42-.17,1.26-.52,2.04-1.41-.15-.28-.43-.84-.63-1.69-.12.16-.22.3-.29.4l-.86-1.36c.08-.1.11-.14.14-.17h-.99c-.08.09-.19.21-.5.51h1.48v1.02c-.24.3-.86.72-1.09.87.87-.07,1.29-.13,1.61-.17v1.23c-.49.08-.9.12-1.67.19v.87c0,.25,0,1.04-.8,1.04h-1.57l-.22-1.27h1.01c.26,0,.26-.12.26-.24v-.28c-.18,0-1.93.13-2.01.15l-.09-1.33c.06,0,1.91-.09,2.1-.1v-.37h.25c.35-.3.44-.41.5-.5h-1.14c-.52.35-.85.52-1.13.65l-.64-1.21c.34-.13.94-.36,1.84-1.07h-1.69v-1.24h1.54v-.52h-1.35V.69h1.35V.02h1.32v.67h1.01v.47c.19-.35.32-.61.48-.99l1.16.57c-.17.35-.47.93-1.01,1.69h.47v.49c.64-1.26.83-2.4.89-2.92l1.38.08c-.06.4-.1.73-.19,1.17h2.14v1.49h-.41c-.05.61-.17,2.37-.94,3.77.58.67,1.13,1.03,1.53,1.29l-.87,1.45c-.28-.21-.88-.67-1.56-1.51-.84.86-1.54,1.27-1.92,1.5l-.91-1.32ZM99.62,1.85v.58h.33c.27-.31.38-.46.47-.58h-.8ZM103.5,2.73c-.12.28-.17.41-.23.54.18,1.1.48,1.69.58,1.92.19-.44.46-1.18.47-2.46h-.82Z"/>
        <path class="cls-1" d="M115.12,5.8h.96v1.22h-3.16v.64h3.88v1.28h-9.18v-1.28h3.86v-.64h-3.14v-1.22h3.14v-.54c-.46,0-2.66.07-3.16.07l-.11-1.19c.06,0,1.27.02,1.4.02.17-.32.23-.51.3-.66h-.97v-.52h-1.06V.6h3.6v-.6h1.47v.6h3.62v2.37h-1.1v.52h-.58c.18.17.85.8,1.38,1.49l-1.15.82ZM115.1,2.31v-.46h-5.76v.46h5.76ZM113.48,3.5h-1.98c-.09.19-.12.24-.33.65,1.74,0,1.92,0,2.42-.03-.19-.17-.3-.26-.47-.4l.36-.22ZM112.92,5.8h2.1c-.19-.31-.24-.38-.47-.68-.58.03-.89.05-1.63.08v.6Z"/>
      </g>
      <g>
        <path class="cls-1" d="M219.08,71.29c0-1.17-.98-2.12-2.19-2.12-.45,0-.87.13-1.22.36v-.2h-1.74v5.62h1.74v-3.25c0-.52.39-.95.87-.95s.87.42.87.95v3.25h1.68v-3.66ZM209.29,71.52h2.51c-.22-.57-.7-.96-1.25-.96s-1.03.39-1.25.96M209.24,72.75c.19.64.7,1.1,1.3,1.1.45,0,.84-.25,1.09-.65h1.75c-.43,1.12-1.54,1.92-2.85,1.92-1.68,0-3.05-1.33-3.05-2.97s1.37-2.97,3.05-2.97,3.05,1.33,3.05,2.97c0,.21-.02.41-.07.6h-4.28ZM208.04,69.34h-1.93l-1.69,2.33v-4.07h-1.74v7.36h1.74v-2.19l1.48,2.18h2l-1.84-2.84,1.98-2.76ZM202.5,69.34h-1.94l-1.69,2.33v-4.07h-1.74v7.36h1.74v-2.19l1.48,2.18h2l-1.84-2.84,1.99-2.76ZM194.99,72.11c0,.87-.66,1.58-1.47,1.58s-1.46-.71-1.46-1.58.65-1.58,1.46-1.58,1.47.71,1.47,1.58M194.87,69.59c-.43-.23-.91-.37-1.44-.37-1.63,0-2.95,1.32-2.95,2.95s1.19,2.95,2.95,2.95c.4,0,.88-.16,1.34-.44.03-.02.1.02.1.06v.21h1.67v-5.62h-1.67v.25ZM190.23,71.19c0,2.17-1.77,3.93-3.94,3.93s-3.94-1.76-3.94-3.93,1.76-3.94,3.94-3.94c1.73,0,3.19,1.11,3.72,2.66h-1.88c-.39-.65-1.07-1.08-1.84-1.08-1.21,0-2.19,1.06-2.19,2.36s.98,2.36,2.19,2.36c.84,0,1.56-.51,1.93-1.25h-2.32v-1.61h4.29c.01.16.03.33.03.5"/>
        <g>
          <path class="cls-1" d="M144.96,75.91h-1.06v-4.49h1.06v.33c.23-.28.53-.43.92-.43.21,0,.41.04.6.13.18.08.34.2.48.34s.24.31.32.51c.08.19.11.4.11.62s-.04.43-.11.62c-.08.19-.18.36-.32.5-.13.14-.29.26-.48.34s-.38.12-.59.12c-.37,0-.68-.13-.93-.38v1.78ZM146.29,72.93c0-.09-.02-.18-.05-.27-.03-.08-.08-.16-.14-.22-.06-.06-.14-.11-.22-.15s-.17-.06-.27-.06-.18.02-.26.05c-.08.04-.15.08-.21.15-.06.06-.11.13-.15.22-.04.08-.06.17-.06.27s.02.18.05.26c.03.08.08.15.15.21.06.06.13.11.22.15.08.04.17.06.27.06s.18-.02.26-.05.15-.08.21-.15c.06-.06.11-.13.15-.22s.06-.17.06-.26Z"/>
          <path class="cls-1" d="M147.71,72.89c0-.22.04-.43.13-.62s.21-.36.37-.5c.16-.14.35-.25.57-.34.22-.08.46-.12.72-.12s.49.04.71.12.41.19.57.33c.16.14.29.31.38.51.09.2.13.41.13.65s-.05.45-.14.65c-.09.2-.22.37-.38.51s-.35.25-.57.33c-.22.08-.47.12-.73.12s-.49-.04-.71-.12-.41-.19-.56-.33c-.16-.14-.28-.32-.37-.52-.09-.2-.13-.42-.13-.67ZM148.82,72.9c0,.1.02.19.06.28.04.08.09.16.15.22.06.06.13.11.22.15.08.03.17.05.27.05s.18-.02.27-.05c.08-.03.16-.08.22-.15.06-.06.11-.13.15-.22.04-.08.06-.17.06-.27s-.02-.18-.06-.27c-.04-.08-.09-.16-.15-.22-.06-.06-.13-.11-.22-.15-.08-.03-.17-.05-.27-.05s-.18.02-.27.05c-.08.03-.16.08-.22.15-.06.06-.11.13-.15.22-.04.08-.06.17-.06.26Z"/>
          <path class="cls-1" d="M152.39,71.42l.72,1.58.75-1.58h.66l.75,1.62.75-1.62h1.17l-1.56,2.99h-.71l-.75-1.64-.71,1.64h-.72l-1.53-2.99h1.18Z"/>
          <path class="cls-1" d="M158.19,73.1c0,.46.21.68.64.68.23,0,.4-.09.52-.28h1.02c-.21.68-.72,1.03-1.55,1.03-.25,0-.48-.04-.69-.11-.21-.08-.39-.18-.54-.32s-.27-.31-.35-.5c-.08-.19-.12-.41-.12-.65s.04-.47.12-.67c.08-.2.19-.37.33-.51.14-.14.32-.25.52-.32s.43-.11.69-.11.48.04.68.11.37.19.51.33c.14.14.25.32.32.53.07.21.11.44.11.7v.11h-2.22ZM159.43,72.48c-.04-.15-.11-.27-.22-.36-.11-.09-.24-.13-.4-.13s-.3.04-.4.13c-.1.09-.17.21-.2.36h1.21Z"/>
          <path class="cls-1" d="M160.84,71.42h1.06v.49c.11-.18.25-.32.41-.41.16-.1.35-.14.57-.14h.09s.07,0,.11.01v1.01c-.14-.07-.29-.11-.46-.11-.24,0-.43.07-.55.22-.12.15-.18.36-.18.64v1.28h-1.06v-2.99Z"/>
          <path class="cls-1" d="M164.37,73.1c0,.46.21.68.64.68.23,0,.4-.09.52-.28h1.02c-.21.68-.72,1.03-1.55,1.03-.25,0-.48-.04-.69-.11-.21-.08-.39-.18-.54-.32s-.27-.31-.35-.5c-.08-.19-.12-.41-.12-.65s.04-.47.12-.67c.08-.2.19-.37.33-.51.14-.14.32-.25.52-.32s.43-.11.69-.11.48.04.68.11.37.19.51.33c.14.14.25.32.32.53.07.21.11.44.11.7v.11h-2.22ZM165.6,72.48c-.04-.15-.11-.27-.22-.36-.11-.09-.24-.13-.4-.13s-.3.04-.4.13c-.1.09-.17.21-.2.36h1.21Z"/>
          <path class="cls-1" d="M169.33,69.57h1.06v4.84h-1.06v-.33c-.23.28-.53.43-.92.43-.22,0-.42-.04-.6-.12-.18-.08-.34-.19-.48-.34-.14-.14-.24-.31-.32-.51-.08-.19-.11-.4-.11-.63,0-.21.04-.42.11-.61s.17-.36.31-.5c.13-.14.29-.26.48-.34s.39-.13.61-.13c.37,0,.68.13.93.39v-2.15ZM168,72.91c0,.1.02.19.05.27.04.08.08.16.14.22.06.06.13.11.22.15.08.03.17.05.27.05s.18-.02.27-.05c.08-.03.16-.08.22-.15.06-.06.11-.13.15-.22s.06-.17.06-.26-.02-.18-.06-.27c-.04-.08-.09-.16-.15-.22-.06-.06-.13-.11-.22-.15-.08-.03-.17-.05-.27-.05s-.18.02-.27.05c-.08.04-.16.08-.22.15-.06.06-.11.13-.15.21-.04.08-.06.17-.06.26Z"/>
          <path class="cls-1" d="M173.79,69.57v2.15c.25-.26.56-.39.93-.39.22,0,.42.04.61.13s.34.2.47.34c.13.14.23.31.31.5.07.19.11.4.11.62s-.04.43-.11.62c-.08.19-.18.36-.32.51-.14.14-.3.26-.48.34-.18.08-.38.13-.6.13-.39,0-.7-.14-.92-.43v.33h-1.06v-4.84h1.06ZM175.12,72.93c0-.09-.02-.18-.05-.27-.04-.08-.08-.16-.15-.22-.06-.06-.13-.11-.22-.15s-.17-.06-.27-.06-.18.02-.26.05c-.08.04-.15.08-.21.15-.06.06-.11.13-.15.22-.04.08-.06.17-.06.27s.02.18.05.26c.03.08.08.15.15.21.06.06.13.11.22.15.08.04.17.06.27.06s.18-.02.26-.05.15-.08.21-.15c.06-.06.11-.13.15-.22s.06-.17.06-.26Z"/>
          <path class="cls-1" d="M177.58,74.01l-1.45-2.58h1.22l.8,1.53.78-1.53h1.21l-2.4,4.49h-1.18l1.02-1.9Z"/>
        </g>
      </g>
    </g>
  </g>
</svg>