<?xml version="1.0" encoding="UTF-8"?>
<svg id="_レイヤー_2" data-name="レイヤー 2" xmlns="http://www.w3.org/2000/svg" viewBox="0 0 539.11 195.19">
  <defs>
    <style>
      .cls-1 {
        fill: #c89409;
      }

      .cls-2 {
        fill: #009844;
      }

      .cls-3 {
        fill: #fccf00;
      }

      .cls-4 {
        fill: #231815;
      }

      .cls-5 {
        fill: #fff;
      }

      .cls-6 {
        fill: #55b032;
      }
    </style>
  </defs>
  <g id="_デザイン01" data-name="デザイン01">
    <g>
      <g>
        <path class="cls-4" d="M195.49,135.53v22.27h-56.07V58.16h24.65v77.37h31.42Z"/>
        <rect class="cls-4" x="213.05" y="89.69" width="23.46" height="68.11"/>
        <path class="cls-6" d="M306.39,137.26v20.55h-16.14c-15.06,0-24.22-9.21-24.22-24.35v-14.35h-12.47v-5.48l30.52-32.5h4.82v19.91h17.11v18.07h-16.52v10.33c0,4.88,2.94,7.82,7.89,7.82h9.01Z"/>
        <path class="cls-3" d="M376.91,137.26v20.55h-16.14c-15.06,0-24.22-9.21-24.22-24.35v-14.35h-12.47v-5.48l30.52-32.5h4.82v19.91h17.11v18.07h-16.52v10.33c0,4.88,2.94,7.82,7.89,7.82h9.01Z"/>
        <path class="cls-4" d="M394.64,62.82h23.46v94.98h-23.46V62.82Z"/>
        <path class="cls-4" d="M472.67,141.17c-7.41,0-12.37-4.04-13.9-11.85h50.58c.3-2.11.48-4.16.48-6.21h0c0-19.98-15.2-35.65-37.16-35.65s-37,15.36-37,36.24,15.74,36.34,37,36.34c11.41,0,21.32-4.35,28.09-11.85l-15.77-13.41c-2.26,3.99-6.84,6.39-12.32,6.39ZM472.67,105.84c7.08,0,11.99,3.67,14.04,10.48h-27.53c1.9-6.76,6.65-10.48,13.49-10.48Z"/>
        <circle class="cls-4" cx="224.78" cy="66.49" r="11.14"/>
        <circle class="cls-1" cx="528.46" cy="145.43" r="10.64"/>
      </g>
      <path class="cls-2" d="M112.45,107.7c0-28.94-14.31-56.13-56.13-56.13S.2,78.76.2,107.7s14.3,56.13,56.13,56.13,56.13-27.19,56.13-56.13Z"/>
      <path class="cls-5" d="M25.85,126.39c0-4.2,2.15-7.33,7.69-7.33,4.02,0,7.96,1.88,11.36,2.59,1.16-2.06,1.79-5.72,2.15-8.05l.72-5.01c-5.99-.98-13.15-3.49-18.15-8.67l5.63-7.42c4.74,3.93,9.66,5.81,13.77,6.71,1.88-12.88,6.98-21.1,19.23-21.1,6.17,0,13.23,4.11,13.23,12.52,0,6.8-5.46,17.17-23.07,18.42l-.89,6.17c-.45,2.95-1.52,7.6-2.95,10.02,2.33.98,5.37,1.43,8.76,1.43,6.35,0,11.36-3.58,15.47-11.45l7.6,3.67c-4.65,9.93-12.25,16.81-23.43,16.45-5.28-.18-10.55-1.52-15.47-3.22-3.04,2.33-6.89,3.22-10.82,3.22-6.8,0-10.73-4.02-10.82-8.94ZM70.93,90.88c0-2.24-1.43-3.4-3.4-3.4-3.76,0-6.44,5.01-7.6,12.07,8.94-1.25,11-6.26,11-8.67Z"/>
      <g>
        <path class="cls-4" d="M532.5,183.98c0-2.85-2.39-5.15-5.33-5.15-1.1,0-2.13.32-2.97.87v-.48h-4.23v13.65h4.23v-7.91c0-1.27.94-2.3,2.11-2.3s2.12,1.03,2.12,2.3v7.91h4.07v-8.89ZM508.69,184.51h6.09c-.53-1.38-1.69-2.33-3.05-2.33s-2.51.95-3.05,2.33M508.58,187.52c.47,1.56,1.7,2.66,3.16,2.66,1.09,0,2.05-.61,2.66-1.57h4.26c-1.05,2.73-3.76,4.68-6.92,4.68-4.08,0-7.4-3.23-7.4-7.23s3.32-7.23,7.4-7.23,7.41,3.23,7.41,7.23c0,.51-.06.99-.16,1.46h-10.41ZM505.66,179.22h-4.7l-4.12,5.66v-9.89h-4.24v17.88h4.24v-5.32l3.59,5.29h4.87l-4.47-6.9,4.82-6.72ZM492.19,179.22h-4.71l-4.12,5.66v-9.89h-4.23v17.88h4.23v-5.32l3.6,5.29h4.87l-4.47-6.9,4.83-6.72ZM473.94,185.96c0,2.12-1.6,3.84-3.56,3.84s-3.56-1.72-3.56-3.84,1.59-3.84,3.56-3.84,3.56,1.72,3.56,3.84M473.65,179.83c-1.04-.57-2.22-.9-3.49-.9-3.97,0-7.18,3.22-7.18,7.18s2.89,7.18,7.18,7.18c.98,0,2.15-.4,3.25-1.07.07-.04.24.05.24.15v.51h4.07v-13.65h-4.07v.61ZM462.36,183.73c0,5.28-4.29,9.56-9.57,9.56s-9.58-4.28-9.58-9.56,4.29-9.58,9.58-9.58c4.2,0,7.75,2.71,9.04,6.46h-4.58c-.94-1.58-2.59-2.63-4.47-2.63-2.95,0-5.33,2.57-5.33,5.74s2.38,5.73,5.33,5.73c2.04,0,3.8-1.23,4.7-3.04h-5.64v-3.91h10.43c.03.39.08.8.08,1.22"/>
        <g>
          <path class="cls-4" d="M352.35,195.19h-2.57v-10.9h2.57v.81c.55-.69,1.29-1.04,2.24-1.04.52,0,1,.1,1.45.3.45.2.84.48,1.17.83s.59.76.77,1.23c.18.47.28.98.28,1.52s-.09,1.04-.28,1.5c-.18.46-.44.87-.77,1.22-.33.35-.71.62-1.16.82s-.93.3-1.45.3c-.91,0-1.66-.31-2.27-.94v4.34ZM355.58,187.95c0-.23-.04-.44-.12-.64-.08-.2-.2-.38-.35-.53-.15-.15-.33-.27-.53-.36s-.42-.14-.66-.14-.44.04-.64.13c-.2.09-.37.2-.52.36-.15.15-.26.33-.35.53-.09.2-.13.42-.13.65s.04.44.13.64c.08.2.2.37.35.52.15.15.33.26.53.35.2.09.42.14.64.14s.44-.04.64-.13.37-.2.52-.36c.15-.15.26-.33.35-.52s.13-.41.13-.62Z"/>
          <path class="cls-4" d="M359.01,187.86c0-.54.11-1.04.33-1.51s.52-.87.91-1.22c.39-.35.85-.62,1.38-.82.53-.2,1.12-.3,1.75-.3s1.2.1,1.74.29,1,.46,1.39.81c.39.35.7.76.91,1.23.22.48.33,1,.33,1.58s-.11,1.1-.33,1.58c-.22.48-.53.89-.91,1.23s-.85.61-1.4.8c-.54.19-1.13.28-1.77.28s-1.2-.09-1.73-.28-.99-.46-1.37-.81c-.38-.35-.68-.77-.9-1.25-.22-.49-.33-1.03-.33-1.62ZM361.72,187.89c0,.25.04.47.13.67.09.2.21.38.35.53.15.15.32.27.52.36.2.08.42.13.64.13s.44-.04.65-.13c.2-.08.38-.2.52-.36.15-.15.26-.33.35-.53.09-.2.13-.42.13-.66s-.05-.44-.13-.64c-.09-.2-.21-.38-.35-.53-.15-.15-.32-.27-.52-.35-.2-.08-.42-.13-.65-.13s-.44.04-.64.13c-.2.08-.38.2-.52.35-.15.15-.27.33-.35.52-.09.2-.13.41-.13.64Z"/>
          <path class="cls-4" d="M370.41,184.29l1.74,3.83,1.82-3.83h1.62l1.81,3.94,1.83-3.94h2.85l-3.8,7.27h-1.72l-1.82-3.98-1.73,3.98h-1.74l-3.73-7.27h2.86Z"/>
          <path class="cls-4" d="M384.5,188.36c0,1.11.52,1.66,1.56,1.66.56,0,.98-.23,1.26-.68h2.48c-.5,1.66-1.75,2.49-3.76,2.49-.61,0-1.18-.09-1.69-.28-.51-.18-.95-.45-1.31-.79s-.65-.75-.84-1.22c-.2-.47-.3-1-.3-1.59s.09-1.15.28-1.64c.19-.49.46-.9.81-1.24.35-.34.77-.6,1.27-.79s1.06-.28,1.68-.28,1.17.09,1.66.28.91.45,1.25.8c.34.35.6.78.78,1.28.18.5.27,1.08.27,1.71v.27h-5.4ZM387.51,186.87c-.09-.36-.26-.65-.52-.87-.26-.22-.59-.33-.96-.33s-.72.1-.97.31c-.25.21-.41.5-.48.88h2.93Z"/>
          <path class="cls-4" d="M390.94,184.29h2.57v1.19c.27-.43.61-.77,1.01-1,.4-.23.86-.35,1.39-.35h.22c.08,0,.17,0,.28.03v2.45c-.34-.17-.71-.26-1.11-.26-.6,0-1.04.18-1.34.53-.3.36-.45.87-.45,1.55v3.12h-2.57v-7.27Z"/>
          <path class="cls-4" d="M399.51,188.36c0,1.11.52,1.66,1.56,1.66.56,0,.98-.23,1.26-.68h2.48c-.5,1.66-1.75,2.49-3.76,2.49-.61,0-1.18-.09-1.69-.28-.51-.18-.95-.45-1.31-.79s-.65-.75-.84-1.22c-.2-.47-.3-1-.3-1.59s.09-1.15.28-1.64c.19-.49.46-.9.81-1.24.35-.34.77-.6,1.27-.79s1.06-.28,1.68-.28,1.17.09,1.66.28.91.45,1.25.8c.34.35.6.78.78,1.28.18.5.27,1.08.27,1.71v.27h-5.4ZM402.52,186.87c-.09-.36-.26-.65-.52-.87-.26-.22-.59-.33-.96-.33s-.72.1-.97.31c-.25.21-.41.5-.48.88h2.93Z"/>
          <path class="cls-4" d="M411.56,179.79h2.58v11.77h-2.58v-.81c-.55.69-1.29,1.03-2.23,1.03-.53,0-1.02-.1-1.46-.3-.44-.2-.83-.47-1.16-.82-.33-.35-.59-.76-.77-1.23-.18-.47-.28-.98-.28-1.53,0-.52.09-1.01.26-1.48s.42-.88.74-1.23c.32-.35.71-.63,1.16-.83s.94-.3,1.48-.3c.91,0,1.66.32,2.25.95v-5.22ZM408.33,187.9c0,.24.04.46.13.66.09.2.2.38.35.53.15.15.32.27.52.36.2.08.42.13.66.13s.44-.04.65-.13c.2-.08.38-.2.52-.36.15-.15.26-.33.35-.52s.13-.41.13-.64-.04-.44-.13-.65c-.09-.2-.21-.38-.35-.53-.15-.15-.32-.27-.52-.36-.2-.08-.42-.13-.65-.13s-.44.04-.65.13c-.2.09-.38.2-.52.36-.15.15-.26.32-.35.52-.09.19-.13.4-.13.63Z"/>
          <path class="cls-4" d="M422.42,179.79v5.22c.6-.63,1.36-.95,2.27-.95.54,0,1.03.1,1.48.3s.83.48,1.15.82c.32.35.56.75.74,1.22.18.47.27.97.27,1.5s-.09,1.04-.28,1.52c-.18.47-.44.88-.77,1.23-.33.35-.72.63-1.17.83-.45.2-.93.3-1.45.3-.95,0-1.69-.34-2.24-1.03v.81h-2.57v-11.77h2.57ZM425.65,187.95c0-.23-.04-.44-.13-.64-.09-.2-.2-.38-.35-.53-.15-.15-.33-.27-.52-.36s-.42-.14-.65-.14-.44.04-.64.13c-.2.09-.37.2-.52.36-.15.15-.26.33-.35.53-.09.2-.13.42-.13.65s.04.44.13.64c.08.2.2.37.35.52.15.15.33.26.53.35.2.09.42.14.64.14s.44-.04.64-.13.37-.2.52-.36c.15-.15.26-.33.35-.52s.13-.41.13-.62Z"/>
          <path class="cls-4" d="M431.62,190.57l-3.52-6.28h2.98l1.94,3.73,1.89-3.73h2.95l-5.84,10.9h-2.88l2.48-4.62Z"/>
        </g>
      </g>
    </g>
    <g>
      <path class="cls-4" d="M14.16,3.65V.03h5.32v3.62h11.72v4.91h-11.72v4.03h13.74v4.9h-11.06c4.42,5.39,9.29,7.55,11.65,8.49l-3.1,5.25c-4.9-2.78-9.32-6.78-11.23-9.88v11.72h-5.32v-11.62c-2.92,3.97-6.16,6.99-11.23,9.77l-2.92-5.25c6.64-2.85,9.88-6.33,11.69-8.49H.49v-4.9h13.67v-4.03H2.61V3.65h11.55Z"/>
      <path class="cls-4" d="M46.58,7.9h-6.23V3.03h12.42V.1h5.18v2.92h12.63v4.87h-6.3l3.72.77c-.14.52-.97,3.62-2.19,6.19h6.05v4.94h-10.61c3.51,3.51,6.57,5.5,11.13,7.41l-2.92,5.04c-5.57-2.61-9.08-6.16-11.51-9.18v9.98h-5.18v-9.74c-4.52,5.08-8.14,7.37-11.34,8.94l-2.99-5.15c3.34-1.32,7.27-3.27,11.1-7.3h-10.5v-4.94h6.02c-.59-2.26-1.11-4.31-2.02-6.09l3.55-.87ZM46.44,14.85h6.33v-6.96h-4.52c.56,1.15,1.56,3.79,2.02,6.12l-3.83.84ZM60.66,13.77c.83-1.81,1.81-5.11,2.02-5.88h-4.73v6.96h7.1l-4.38-1.08Z"/>
      <path class="cls-4" d="M86.26,2.05c-.35,2.12-1.39,8.07-1.39,16.66,0,4.17.24,8.45,1.04,12.56l-5.77.42c-.31-1.67-.94-5.18-.94-11.72,0-7.79.87-15.24,1.22-18.3l5.84.38ZM95.52,17.81c-1.29,1.6-1.6,2.92-1.6,3.93,0,2.37,2.64,2.78,6.02,2.78,2.47,0,5.74-.1,8.17-.42l.1,5.63c-1.01.1-2.92.31-6.33.31-5.7,0-13.25-.28-13.25-7.3,0-.9,0-3.55,2.26-6.96l4.63,2.02ZM107.55,3.93v5.46h-17.88V3.93h17.88Z"/>
      <path class="cls-4" d="M120.56,25.22c11.79.17,20.35-.8,20.35-9.22,0-2.99-1.32-6.54-6.92-6.54-3.48,0-7.06.84-17.5,3.27l-1.32-6.05c2.05-.28,3.51-.52,7.1-1.15,7.62-1.36,10.16-1.5,12.35-1.5,7.1,0,12.24,4.66,12.24,11.97,0,11.06-10.02,13.11-12.83,13.67-2.4.49-5.6,1.01-12.24.97l-1.22-5.43Z"/>
      <path class="cls-4" d="M166.55,1.01c-.1.63-.56,3.27-.63,3.79h6.05v5.29h-6.92c-1.08,5.29-3.37,12.83-5.22,18.02l-5.74-1.6c1.56-3.2,4.1-10.54,5.29-16.42h-4.66v-5.29h5.57c.28-1.91.35-2.82.42-4l5.84.21ZM185.47,10.23c-.83-.07-1.74-.17-2.82-.17-1.25,0-2.33.14-3.2.24l.21,9.32c4.42,2.5,5.64,3.65,6.51,4.45l-3.1,5.29c-.94-1.01-2.3-2.26-3.83-3.65l-.04.73c-.17,3.93-3.55,5.43-7.41,5.43-5.81,0-8.63-3.1-8.63-6.92,0-3.06,2.05-7.13,8.9-7.13.87,0,1.46.03,2.09.1l-.35-12.56c1.64-.31,4.38-.83,11.17-1.04l.49,5.91ZM174.31,22.89c-.66-.24-1.32-.49-2.5-.49-.49,0-3.72.03-3.72,2.4,0,.73.38,2.37,3.34,2.37s2.89-1.46,2.89-2.33v-1.95Z"/>
      <path class="cls-4" d="M205.51,1.11c-.17,1.36-.35,2.85-.76,5.84h2.99c6.92,0,7.72,5.15,7.72,9.84,0,1.98-.24,9.53-2.47,12.49-1.77,2.33-4.1,2.47-5.88,2.47-2.3,0-3.83-.28-5.04-.49l-.21-5.29c1.29.24,2.5.49,4.07.49,1.74,0,2.33-.66,2.68-1.18.97-1.43,1.43-6.19,1.43-8.7,0-2.78-.07-4.52-3.37-4.49l-2.78.04c-1.18,6.68-2.85,13.32-5.91,19.37l-5.15-2.75c1.53-2.33,3.37-5.74,5.6-16.59l-4.97.07v-5.29h5.74c.31-2.54.49-4.59.59-6.23l5.74.38ZM216.95,7.17c-.31-1.25-1.08-3.79-2.12-5.6l3.06-.83c1.01,1.6,1.84,4.03,2.19,5.39l-3.13,1.04ZM218.76,22.05c-.17-8.7-1.95-11.9-2.64-13.18l5.08-1.56c1.74,2.96,3.06,7.17,3.48,14.16l-5.91.59ZM222.1,6.3c-.1-.38-1.01-3.3-2.3-5.43l3.03-.84c.38.59,1.11,1.64,2.3,5.36l-3.03.9Z"/>
      <path class="cls-4" d="M255.53,1.77v4.35c-5.25,4.45-5.57,4.73-6.68,5.64.56-.17,1.25-.42,3.1-.42,7.1,0,10.33,5.25,10.33,9.91,0,5.74-4.35,10.57-14.37,10.57-9.01,0-9.18-5.6-9.18-6.33,0-3.65,3.55-5.7,6.89-5.7,4.17,0,6.26,2.89,6.26,5.74,0,.42-.04.7-.1,1.18,2.96-.9,4.63-2.57,4.63-5.22,0-2.12-1.32-5.5-7.2-5.5-5.57,0-8.38,2.64-14.78,9.18l-3.44-4.59c2.85-2.16,4.17-3.3,16.1-13.67l-12.21.24V1.77h20.66ZM247.84,26.54c0-.24-.07-2.64-2.5-2.64-1.32,0-2.23.66-2.23,1.7,0,1.77,2.5,1.88,3.3,1.88.45,0,.8-.04,1.32-.14.07-.31.1-.49.1-.8Z"/>
      <path class="cls-4" d="M269.03,27.83c6.4-.84,9.88-2.92,11.37-4.31h-10.96v-4.91h3.51v-8.66h10.3v-1.88h5.15v1.88h10.3v8.66h3.51v4.91h-11.2c1.29,1.22,3.69,3.48,11.76,4.1l-2.78,5.43c-1.88-.28-4.84-.8-8.56-3.1-2.68-1.64-4.52-3.69-5.53-5.32-1.88,2.85-5.95,6.47-13.95,8.7l-2.92-5.5ZM275.95.03h5.08v2.19h9.5V.03h5.18v2.19h6.51v4.97h-6.51v1.88h-5.18v-1.88h-9.5v1.88h-5.08v-1.88h-6.5V2.23h6.5V.03ZM283.25,14.5h-5.22v4.1h5.01c.14-.66.21-1.39.21-2.05v-2.05ZM288.4,15.86c0,1.6-.14,2.4-.21,2.75h5.36v-4.1h-5.15v1.36Z"/>
      <path class="cls-4" d="M307.92,6.16h13.81v3.86h-13.81v-3.86ZM308.82,1.11h11.83v3.65h-11.83V1.11ZM308.82,11.34h11.83v3.83h-11.83v-3.83ZM308.82,16.52h11.83v3.79h-11.83v-3.79ZM308.82,21.77h11.83v10.02h-7.1v1.29h-4.73v-11.3ZM313.55,25.43v2.57h2.75v-2.57h-2.75ZM326.52,7.2c.14-.63.21-1.04.31-1.81h-4.77V1.11h18.37v4.28h-8.63c-.14.73-.17.9-.35,1.81h7.76v6.71h1.74v4.17h-19.41v-4.17h3.3c.17-.63.38-1.25.77-2.78h-2.89v-3.93h3.79ZM339.67,19.83v13.25h-4.94v-1.29h-7.1v1.29h-4.91v-13.25h16.94ZM327.64,24.1v3.34h7.1v-3.34h-7.1ZM334.25,13.91v-2.78h-3.69c-.21.87-.42,1.64-.73,2.78h4.42Z"/>
      <path class="cls-4" d="M361.28,28.31c1.5-.63,4.52-1.88,7.3-5.04-.52-1.01-1.53-2.99-2.26-6.05-.42.56-.8,1.08-1.04,1.43l-3.06-4.87c.28-.35.38-.49.49-.63h-3.55c-.28.31-.7.77-1.77,1.81h5.29v3.65c-.87,1.08-3.06,2.57-3.9,3.13,3.13-.24,4.63-.45,5.77-.59v4.42c-1.74.28-3.24.42-5.98.7v3.1c0,.9,0,3.72-2.85,3.72h-5.6l-.8-4.56h3.62c.94,0,.94-.42.94-.87v-1.01c-.66.04-6.92.45-7.2.52l-.31-4.76c.21,0,6.82-.31,7.51-.35v-1.32h.9c1.25-1.08,1.57-1.46,1.77-1.77h-4.07c-1.88,1.25-3.03,1.84-4.04,2.33l-2.3-4.31c1.22-.45,3.37-1.29,6.57-3.83h-6.05v-4.45h5.5v-1.84h-4.83V2.47h4.83V.07h4.73v2.4h3.62v1.67c.7-1.25,1.15-2.19,1.7-3.55l4.14,2.05c-.63,1.25-1.67,3.34-3.62,6.05h1.67v1.74c2.3-4.52,2.96-8.59,3.2-10.43l4.94.28c-.21,1.43-.35,2.61-.7,4.17h7.65v5.32h-1.46c-.17,2.19-.63,8.49-3.37,13.5,2.09,2.4,4.04,3.69,5.46,4.63l-3.13,5.18c-1.01-.77-3.17-2.4-5.57-5.39-2.99,3.06-5.5,4.56-6.89,5.36l-3.27-4.73ZM356.48,6.61v2.09h1.18c.97-1.11,1.36-1.63,1.67-2.09h-2.85ZM370.35,9.77c-.42,1.01-.59,1.46-.83,1.95.66,3.93,1.7,6.05,2.09,6.85.7-1.57,1.64-4.21,1.67-8.8h-2.92Z"/>
      <path class="cls-4" d="M411.96,20.77h3.44v4.35h-11.3v2.3h13.88v4.59h-32.83v-4.59h13.81v-2.3h-11.23v-4.35h11.23v-1.95c-1.63.03-9.53.24-11.3.24l-.38-4.24c.21.04,4.56.07,5.01.07.59-1.15.84-1.81,1.08-2.36h-3.48v-1.88h-3.79V2.16h12.87V0h5.25v2.16h12.94v8.49h-3.93v1.88h-2.09c.66.63,3.03,2.85,4.94,5.32l-4.1,2.92ZM411.89,8.28v-1.64h-20.63v1.64h20.63ZM406.08,12.52h-7.1c-.31.7-.42.87-1.18,2.33,6.23,0,6.89,0,8.66-.1-.7-.63-1.08-.94-1.67-1.43l1.29-.8ZM404.1,20.77h7.51c-.7-1.11-.87-1.36-1.67-2.43-2.09.1-3.2.17-5.84.28v2.16Z"/>
    </g>
  </g>
</svg>